<mxfile host="app.diagrams.net" agent="Mozilla/5.0 (Macintosh; Intel Mac OS X 10_15_7) AppleWebKit/537.36 (KHTML, like Gecko) Chrome/131.0.0.0 Safari/537.36" version="25.0.3">
  <diagram name="Page-1" id="q4jpS1v6kUGZbumHzDv2">
    <mxGraphModel dx="954" dy="605" grid="1" gridSize="10" guides="1" tooltips="1" connect="1" arrows="1" fold="1" page="1" pageScale="1" pageWidth="827" pageHeight="1169" math="0" shadow="0">
      <root>
        <mxCell id="0" />
        <mxCell id="1" parent="0" />
        <mxCell id="xpCVtK7YXeLVdShChPpa-1" value="" style="whiteSpace=wrap;html=1;aspect=fixed;" vertex="1" parent="1">
          <mxGeometry x="360" y="40" width="80" height="80" as="geometry" />
        </mxCell>
        <mxCell id="xpCVtK7YXeLVdShChPpa-10" style="edgeStyle=orthogonalEdgeStyle;rounded=0;orthogonalLoop=1;jettySize=auto;html=1;exitX=1;exitY=0.5;exitDx=0;exitDy=0;entryX=0.75;entryY=1;entryDx=0;entryDy=0;" edge="1" parent="1" source="xpCVtK7YXeLVdShChPpa-5" target="xpCVtK7YXeLVdShChPpa-6">
          <mxGeometry relative="1" as="geometry" />
        </mxCell>
        <mxCell id="xpCVtK7YXeLVdShChPpa-27" value="2" style="edgeLabel;html=1;align=center;verticalAlign=middle;resizable=0;points=[];" vertex="1" connectable="0" parent="xpCVtK7YXeLVdShChPpa-10">
          <mxGeometry x="-0.5525" y="1" relative="1" as="geometry">
            <mxPoint as="offset" />
          </mxGeometry>
        </mxCell>
        <mxCell id="xpCVtK7YXeLVdShChPpa-5" value="API Gateway" style="whiteSpace=wrap;html=1;aspect=fixed;" vertex="1" parent="1">
          <mxGeometry x="140" y="150" width="150" height="150" as="geometry" />
        </mxCell>
        <mxCell id="xpCVtK7YXeLVdShChPpa-6" value="" style="whiteSpace=wrap;html=1;aspect=fixed;" vertex="1" parent="1">
          <mxGeometry x="400" y="20" width="80" height="80" as="geometry" />
        </mxCell>
        <mxCell id="xpCVtK7YXeLVdShChPpa-7" value="SeedService" style="whiteSpace=wrap;html=1;aspect=fixed;" vertex="1" parent="1">
          <mxGeometry x="440" y="10" width="80" height="80" as="geometry" />
        </mxCell>
        <mxCell id="xpCVtK7YXeLVdShChPpa-9" style="edgeStyle=orthogonalEdgeStyle;rounded=0;orthogonalLoop=1;jettySize=auto;html=1;exitX=1;exitY=0.5;exitDx=0;exitDy=0;" edge="1" parent="1" source="xpCVtK7YXeLVdShChPpa-8">
          <mxGeometry relative="1" as="geometry">
            <mxPoint x="220" y="150" as="targetPoint" />
          </mxGeometry>
        </mxCell>
        <mxCell id="xpCVtK7YXeLVdShChPpa-18" value="POST /feed data: url" style="edgeLabel;html=1;align=center;verticalAlign=middle;resizable=0;points=[];" vertex="1" connectable="0" parent="xpCVtK7YXeLVdShChPpa-9">
          <mxGeometry x="-0.0348" relative="1" as="geometry">
            <mxPoint as="offset" />
          </mxGeometry>
        </mxCell>
        <mxCell id="xpCVtK7YXeLVdShChPpa-26" value="1" style="edgeLabel;html=1;align=center;verticalAlign=middle;resizable=0;points=[];" vertex="1" connectable="0" parent="xpCVtK7YXeLVdShChPpa-9">
          <mxGeometry x="0.4625" y="2" relative="1" as="geometry">
            <mxPoint as="offset" />
          </mxGeometry>
        </mxCell>
        <mxCell id="xpCVtK7YXeLVdShChPpa-8" value="Seed Urls" style="whiteSpace=wrap;html=1;aspect=fixed;" vertex="1" parent="1">
          <mxGeometry x="120" y="30" width="80" height="80" as="geometry" />
        </mxCell>
        <mxCell id="xpCVtK7YXeLVdShChPpa-15" style="edgeStyle=orthogonalEdgeStyle;rounded=0;orthogonalLoop=1;jettySize=auto;html=1;exitX=0.5;exitY=1;exitDx=0;exitDy=0;" edge="1" parent="1" source="xpCVtK7YXeLVdShChPpa-11" target="xpCVtK7YXeLVdShChPpa-12">
          <mxGeometry relative="1" as="geometry" />
        </mxCell>
        <mxCell id="xpCVtK7YXeLVdShChPpa-11" value="Extract The Url with al the links" style="whiteSpace=wrap;html=1;" vertex="1" parent="1">
          <mxGeometry x="670" y="10" width="120" height="60" as="geometry" />
        </mxCell>
        <mxCell id="xpCVtK7YXeLVdShChPpa-22" style="edgeStyle=orthogonalEdgeStyle;rounded=0;orthogonalLoop=1;jettySize=auto;html=1;exitX=0.75;exitY=1;exitDx=0;exitDy=0;entryX=0.75;entryY=0;entryDx=0;entryDy=0;" edge="1" parent="1" source="xpCVtK7YXeLVdShChPpa-12" target="xpCVtK7YXeLVdShChPpa-20">
          <mxGeometry relative="1" as="geometry" />
        </mxCell>
        <mxCell id="xpCVtK7YXeLVdShChPpa-12" value="Collect these links" style="whiteSpace=wrap;html=1;" vertex="1" parent="1">
          <mxGeometry x="670" y="100" width="120" height="60" as="geometry" />
        </mxCell>
        <mxCell id="xpCVtK7YXeLVdShChPpa-13" value="Cache Cluster" style="whiteSpace=wrap;html=1;aspect=fixed;" vertex="1" parent="1">
          <mxGeometry x="370" y="260" width="90" height="90" as="geometry" />
        </mxCell>
        <mxCell id="xpCVtK7YXeLVdShChPpa-16" style="edgeStyle=orthogonalEdgeStyle;rounded=0;orthogonalLoop=1;jettySize=auto;html=1;exitX=0;exitY=0.5;exitDx=0;exitDy=0;entryX=1.038;entryY=0.388;entryDx=0;entryDy=0;entryPerimeter=0;" edge="1" parent="1" source="xpCVtK7YXeLVdShChPpa-12" target="xpCVtK7YXeLVdShChPpa-13">
          <mxGeometry relative="1" as="geometry" />
        </mxCell>
        <mxCell id="xpCVtK7YXeLVdShChPpa-17" style="edgeStyle=orthogonalEdgeStyle;rounded=0;orthogonalLoop=1;jettySize=auto;html=1;exitX=0.5;exitY=1;exitDx=0;exitDy=0;entryX=1.025;entryY=0.35;entryDx=0;entryDy=0;entryPerimeter=0;" edge="1" parent="1" source="xpCVtK7YXeLVdShChPpa-12" target="xpCVtK7YXeLVdShChPpa-5">
          <mxGeometry relative="1" as="geometry" />
        </mxCell>
        <mxCell id="xpCVtK7YXeLVdShChPpa-19" value="/feed data : url" style="edgeLabel;html=1;align=center;verticalAlign=middle;resizable=0;points=[];" vertex="1" connectable="0" parent="xpCVtK7YXeLVdShChPpa-17">
          <mxGeometry x="0.7042" y="-3" relative="1" as="geometry">
            <mxPoint as="offset" />
          </mxGeometry>
        </mxCell>
        <mxCell id="xpCVtK7YXeLVdShChPpa-28" value="3" style="edgeLabel;html=1;align=center;verticalAlign=middle;resizable=0;points=[];" vertex="1" connectable="0" parent="xpCVtK7YXeLVdShChPpa-17">
          <mxGeometry x="0.4517" relative="1" as="geometry">
            <mxPoint x="1" as="offset" />
          </mxGeometry>
        </mxCell>
        <mxCell id="xpCVtK7YXeLVdShChPpa-23" style="edgeStyle=orthogonalEdgeStyle;rounded=0;orthogonalLoop=1;jettySize=auto;html=1;exitX=0.5;exitY=1;exitDx=0;exitDy=0;" edge="1" parent="1" source="xpCVtK7YXeLVdShChPpa-20">
          <mxGeometry relative="1" as="geometry">
            <mxPoint x="730" y="320" as="targetPoint" />
          </mxGeometry>
        </mxCell>
        <mxCell id="xpCVtK7YXeLVdShChPpa-20" value="Parse Link" style="whiteSpace=wrap;html=1;" vertex="1" parent="1">
          <mxGeometry x="670" y="210" width="120" height="60" as="geometry" />
        </mxCell>
        <mxCell id="xpCVtK7YXeLVdShChPpa-24" value="Skipping&lt;div&gt;Files/Images/media&lt;/div&gt;" style="whiteSpace=wrap;html=1;" vertex="1" parent="1">
          <mxGeometry x="670" y="320" width="120" height="60" as="geometry" />
        </mxCell>
        <mxCell id="xpCVtK7YXeLVdShChPpa-25" value="Custom RateLimiter" style="rounded=0;whiteSpace=wrap;html=1;" vertex="1" parent="1">
          <mxGeometry x="140" y="240" width="120" height="60" as="geometry" />
        </mxCell>
        <mxCell id="xpCVtK7YXeLVdShChPpa-31" style="edgeStyle=orthogonalEdgeStyle;rounded=0;orthogonalLoop=1;jettySize=auto;html=1;exitX=0.5;exitY=1;exitDx=0;exitDy=0;" edge="1" parent="1" source="xpCVtK7YXeLVdShChPpa-29">
          <mxGeometry relative="1" as="geometry">
            <mxPoint x="555" y="430" as="targetPoint" />
          </mxGeometry>
        </mxCell>
        <mxCell id="xpCVtK7YXeLVdShChPpa-29" value="Cassandra / HBASE" style="whiteSpace=wrap;html=1;aspect=fixed;" vertex="1" parent="1">
          <mxGeometry x="510" y="265" width="90" height="90" as="geometry" />
        </mxCell>
        <mxCell id="xpCVtK7YXeLVdShChPpa-30" style="edgeStyle=orthogonalEdgeStyle;rounded=0;orthogonalLoop=1;jettySize=auto;html=1;exitX=0.5;exitY=1;exitDx=0;exitDy=0;entryX=1.033;entryY=0.678;entryDx=0;entryDy=0;entryPerimeter=0;" edge="1" parent="1" source="xpCVtK7YXeLVdShChPpa-24" target="xpCVtK7YXeLVdShChPpa-29">
          <mxGeometry relative="1" as="geometry" />
        </mxCell>
        <mxCell id="xpCVtK7YXeLVdShChPpa-32" value="Archive in S3" style="whiteSpace=wrap;html=1;aspect=fixed;" vertex="1" parent="1">
          <mxGeometry x="520" y="430" width="60" height="60" as="geometry" />
        </mxCell>
        <mxCell id="xpCVtK7YXeLVdShChPpa-33" value="Preference List" style="whiteSpace=wrap;html=1;aspect=fixed;" vertex="1" parent="1">
          <mxGeometry x="100" y="360" width="120" height="120" as="geometry" />
        </mxCell>
      </root>
    </mxGraphModel>
  </diagram>
</mxfile>
